<svg width="31" height="32" viewBox="0 0 31 32" fill="none" xmlns="http://www.w3.org/2000/svg">
<g clip-path="url(#clip0_20_11)">
<path d="M15.5088 0C15.5146 0 15.5205 0 15.5265 0C15.5298 0.00591857 15.5331 0.0118371 15.5365 0.017935C15.6192 0.166557 15.6192 0.166557 15.7046 0.313633C15.7378 0.369539 15.7703 0.425796 15.8027 0.482108C15.8084 0.491914 15.8141 0.501719 15.8199 0.511822C15.8315 0.531932 15.843 0.552042 15.8546 0.572153C15.8825 0.620567 15.9104 0.668958 15.9384 0.71735C15.9494 0.736538 15.9605 0.755727 15.9716 0.774915C15.9771 0.784413 15.9825 0.793912 15.9882 0.803698C16.1709 1.12031 16.1709 1.12031 16.1875 1.14909C16.1985 1.16827 16.2096 1.18744 16.2207 1.20661C16.2485 1.2548 16.2763 1.30299 16.304 1.35119C16.3574 1.44375 16.4109 1.53622 16.4648 1.62843C16.5128 1.71053 16.5602 1.79301 16.6073 1.87564C16.6533 1.95644 16.6999 2.03693 16.7469 2.11722C16.8014 2.21042 16.8553 2.30397 16.9092 2.39752C16.9369 2.4456 16.9646 2.49366 16.9924 2.54172C17.0034 2.56091 17.0145 2.5801 17.0256 2.59929C17.0311 2.60879 17.0365 2.61828 17.0422 2.62807C18.1549 4.5565 18.1549 4.5565 18.1715 4.58529C18.1825 4.60446 18.1936 4.62364 18.2047 4.64281C18.2325 4.69099 18.2603 4.73918 18.288 4.78738C18.3414 4.87995 18.3949 4.97241 18.4488 5.06462C18.4968 5.14672 18.5442 5.2292 18.5913 5.31183C18.6373 5.39264 18.6839 5.47313 18.7309 5.55341C18.7854 5.64661 18.8393 5.74016 18.8932 5.83372C18.9209 5.8818 18.9486 5.92986 18.9764 5.97792C18.9874 5.9971 18.9985 6.01629 19.0096 6.03548C19.0151 6.04498 19.0205 6.05448 19.0262 6.06426C20.1389 7.9927 20.1389 7.9927 20.1555 8.02148C20.1665 8.04066 20.1776 8.05983 20.1887 8.079C20.2165 8.12719 20.2443 8.17538 20.272 8.22358C20.3254 8.31614 20.3789 8.40861 20.4328 8.50082C20.4808 8.58292 20.5282 8.6654 20.5753 8.74802C20.6213 8.82883 20.6679 8.90932 20.7149 8.98961C20.7694 9.08281 20.8233 9.17636 20.8772 9.26991C20.9049 9.31799 20.9326 9.36605 20.9604 9.41411C20.9714 9.4333 20.9825 9.45249 20.9936 9.47168C20.9991 9.48118 21.0045 9.49067 21.0102 9.50046C22.1229 11.4289 22.1229 11.4289 22.1395 11.4577C22.1505 11.4769 22.1616 11.496 22.1727 11.5152C22.2005 11.5634 22.2283 11.6116 22.256 11.6598C22.3094 11.7523 22.3629 11.8448 22.4168 11.937C22.4648 12.0191 22.5122 12.1016 22.5593 12.1842C22.6053 12.265 22.6519 12.3455 22.6989 12.4258C22.7534 12.519 22.8073 12.6126 22.8612 12.7061C22.8889 12.7542 22.9166 12.8022 22.9444 12.8503C22.9554 12.8695 22.9665 12.8887 22.9776 12.9079C22.9831 12.9174 22.9885 12.9269 22.9942 12.9367C24.1069 14.8651 24.1069 14.8651 24.1235 14.8939C24.1345 14.913 24.1456 14.9322 24.1567 14.9514C24.1845 14.9996 24.2123 15.0478 24.24 15.096C24.2934 15.1885 24.3469 15.281 24.4008 15.3732C24.4488 15.4553 24.4962 15.5378 24.5433 15.6204C24.5893 15.7012 24.6359 15.7817 24.6829 15.862C24.7374 15.9552 24.7913 16.0487 24.8452 16.1423C24.8729 16.1904 24.9006 16.2384 24.9284 16.2865C24.9394 16.3057 24.9505 16.3249 24.9616 16.3441C24.9671 16.3536 24.9725 16.3631 24.9782 16.3728C26.2237 18.5315 26.2237 18.5315 26.2403 18.5603C26.2514 18.5795 26.2625 18.5987 26.2735 18.6178C26.3013 18.666 26.3291 18.7142 26.3569 18.7624C26.4102 18.855 26.4637 18.9475 26.5177 19.0397C26.5657 19.1218 26.613 19.2042 26.6601 19.2869C26.7062 19.3677 26.7528 19.4482 26.7997 19.5285C26.8543 19.6217 26.9082 19.7152 26.9621 19.8088C26.9898 19.8568 27.0175 19.9049 27.0452 19.953C27.0563 19.9721 27.0674 19.9913 27.0784 20.0105C27.0839 20.02 27.0894 20.0295 27.0951 20.0393C28.2077 21.9677 28.2077 21.9677 28.2243 21.9965C28.2354 22.0157 28.2465 22.0349 28.2575 22.054C28.2853 22.1022 28.3131 22.1504 28.3409 22.1986C28.3942 22.2912 28.4477 22.3836 28.5017 22.4759C28.5497 22.558 28.597 22.6404 28.6441 22.7231C28.6902 22.8039 28.7368 22.8844 28.7837 22.9646C28.8382 23.0578 28.8922 23.1514 28.9461 23.245C28.9738 23.293 29.0015 23.3411 29.0292 23.3892C29.0403 23.4083 29.0514 23.4275 29.0624 23.4467C29.0679 23.4562 29.0734 23.4657 29.0791 23.4755C30.1917 25.4039 30.1917 25.4039 30.2083 25.4327C30.2194 25.4519 30.2305 25.4711 30.2415 25.4902C30.2693 25.5384 30.2971 25.5866 30.3249 25.6348C30.3782 25.7274 30.4317 25.8198 30.4857 25.9121C30.5337 25.9942 30.581 26.0766 30.6281 26.1593C30.6741 26.24 30.7206 26.3204 30.7676 26.4005C30.8125 26.4773 30.8569 26.5543 30.9012 26.6314C30.9064 26.6404 30.9116 26.6494 30.9169 26.6587C30.9243 26.6717 30.9243 26.6717 30.9319 26.6849C30.9419 26.7018 30.9522 26.7185 30.9628 26.735C30.9702 26.7466 30.9702 26.7466 30.9778 26.7584C30.9823 26.7652 30.9868 26.7719 30.9914 26.7789C31.0028 26.8053 31.0013 26.8162 30.9911 26.8431C30.9765 26.8606 30.9623 26.8758 30.9459 26.8914C30.9413 26.8959 30.9368 26.9004 30.9321 26.905C30.9175 26.9193 30.9028 26.9335 30.8881 26.9477C30.8736 26.9618 30.8592 26.9759 30.8447 26.9901C30.8358 26.9989 30.8268 27.0076 30.8177 27.0163C30.7938 27.0396 30.7713 27.0636 30.7496 27.0889C30.7122 27.1321 30.6718 27.1721 30.6313 27.2123C30.6232 27.2202 30.6152 27.2282 30.607 27.2365C30.5772 27.2661 30.5474 27.2957 30.5176 27.3253C30.4883 27.3544 30.459 27.3835 30.4298 27.4126C30.4221 27.4202 30.4145 27.4277 30.4067 27.4355C30.369 27.473 30.3331 27.5111 30.2985 27.5513C30.267 27.5868 30.2329 27.6198 30.1992 27.6531C30.1914 27.6609 30.1836 27.6687 30.1755 27.6767C30.1465 27.7056 30.1174 27.7345 30.0884 27.7633C30.0598 27.7917 30.0312 27.8201 30.0027 27.8485C29.9915 27.8595 29.9915 27.8595 29.9802 27.8708C29.9486 27.9023 29.9176 27.9338 29.8885 27.9677C29.8519 28.0103 29.812 28.0495 29.7721 28.089C29.7641 28.097 29.7561 28.105 29.7478 28.1132C29.7181 28.1428 29.6883 28.1724 29.6585 28.202C29.6292 28.2311 29.5999 28.2602 29.5706 28.2894C29.563 28.2969 29.5554 28.3045 29.5475 28.3123C29.5154 28.3442 29.4839 28.3762 29.4544 28.4106C29.4178 28.4532 29.378 28.4923 29.3381 28.5318C29.3301 28.5398 29.3221 28.5478 29.3138 28.556C29.2841 28.5857 29.2543 28.6152 29.2245 28.6448C29.1952 28.6739 29.1659 28.7031 29.1366 28.7322C29.129 28.7397 29.1214 28.7473 29.1135 28.7551C29.0759 28.7925 29.0399 28.8306 29.0053 28.8709C28.9738 28.9063 28.9398 28.9393 28.9061 28.9727C28.8982 28.9805 28.8904 28.9883 28.8823 28.9963C28.8533 29.0252 28.8243 29.054 28.7952 29.0829C28.7666 29.1113 28.7381 29.1397 28.7095 29.1681C28.6984 29.1791 28.6984 29.1791 28.687 29.1904C28.6554 29.2218 28.6244 29.2534 28.5954 29.2872C28.5587 29.3298 28.5189 29.3691 28.479 29.4086C28.471 29.4166 28.4629 29.4246 28.4547 29.4328C28.4249 29.4624 28.3951 29.492 28.3653 29.5216C28.336 29.5507 28.3067 29.5798 28.2775 29.609C28.2699 29.6165 28.2622 29.624 28.2544 29.6318C28.2223 29.6638 28.1908 29.6958 28.1612 29.7302C28.1246 29.7727 28.0848 29.8119 28.045 29.8514C28.037 29.8594 28.0289 29.8674 28.0207 29.8756C27.9909 29.9052 27.9611 29.9348 27.9313 29.9644C27.902 29.9935 27.8727 30.0226 27.8435 30.0518C27.8359 30.0593 27.8282 30.0669 27.8204 30.0746C27.7828 30.1121 27.7468 30.1502 27.7122 30.1905C27.6807 30.2259 27.6466 30.2589 27.6129 30.2923C27.6051 30.3001 27.5973 30.3078 27.5892 30.3159C27.5602 30.3448 27.5311 30.3736 27.5021 30.4025C27.4735 30.4308 27.4449 30.4592 27.4164 30.4877C27.4053 30.4987 27.4053 30.4987 27.3939 30.5099C27.3623 30.5414 27.3313 30.573 27.3022 30.6068C27.2656 30.6494 27.2257 30.6886 27.1858 30.7282C27.1778 30.7361 27.1698 30.7441 27.1615 30.7524C27.1318 30.782 27.102 30.8116 27.0722 30.8412C27.0429 30.8703 27.0136 30.8994 26.9843 30.9285C26.9767 30.9361 26.9691 30.9436 26.9612 30.9514C26.9229 30.9895 26.8861 31.0283 26.8508 31.0693C26.8193 31.1057 26.7854 31.1399 26.7516 31.1742C26.7428 31.1832 26.7341 31.1922 26.7254 31.2013C26.7127 31.2146 26.6999 31.2277 26.687 31.2407C26.6795 31.2485 26.6719 31.2563 26.6642 31.2642C26.6422 31.28 26.6422 31.28 26.6188 31.279C26.5908 31.2685 26.5704 31.2532 26.5465 31.2352C26.479 31.1853 26.4093 31.1391 26.3392 31.093C26.2964 31.0647 26.2542 31.0359 26.2128 31.0055C26.1622 30.9684 26.1101 30.9337 26.0577 30.8992C25.9969 30.8592 25.9372 30.8183 25.8785 30.7752C25.8358 30.7444 25.7917 30.7156 25.7477 30.6866C25.6869 30.6466 25.6272 30.6057 25.5685 30.5627C25.5258 30.5319 25.4817 30.5031 25.4377 30.4741C25.3769 30.4341 25.3172 30.3932 25.2585 30.3501C25.2158 30.3193 25.1717 30.2905 25.1277 30.2615C25.0669 30.2215 25.0072 30.1806 24.9485 30.1376C24.9058 30.1068 24.8617 30.078 24.8177 30.049C24.7569 30.009 24.6972 29.9681 24.6385 29.925C24.5958 29.8942 24.5517 29.8654 24.5077 29.8364C24.4469 29.7964 24.3872 29.7555 24.3285 29.7125C24.2858 29.6817 24.2417 29.6529 24.1977 29.6239C24.1369 29.5839 24.0772 29.543 24.0185 29.4999C23.9758 29.4691 23.9317 29.4403 23.8877 29.4114C23.8269 29.3714 23.7672 29.3304 23.7085 29.2874C23.6658 29.2566 23.6217 29.2278 23.5777 29.1988C23.5169 29.1588 23.4572 29.1179 23.3985 29.0748C23.3558 29.044 23.3117 29.0152 23.2677 28.9863C23.2069 28.9463 23.1472 28.9053 23.0885 28.8623C23.0458 28.8315 23.0017 28.8027 22.9577 28.7737C22.8969 28.7337 22.8372 28.6928 22.7785 28.6497C22.7358 28.6189 22.6917 28.5901 22.6477 28.5612C22.5869 28.5212 22.5272 28.4802 22.4685 28.4372C22.4258 28.4064 22.3817 28.3776 22.3377 28.3486C22.2769 28.3086 22.2172 28.2677 22.1585 28.2246C22.1158 28.1938 22.0717 28.165 22.0277 28.1361C21.9669 28.0961 21.9072 28.0551 21.8485 28.0121C21.8058 27.9813 21.7617 27.9525 21.7177 27.9235C21.6569 27.8835 21.5972 27.8426 21.5385 27.7995C21.4958 27.7687 21.4517 27.7399 21.4077 27.711C21.3469 27.671 21.2872 27.6301 21.2285 27.587C21.1858 27.5562 21.1417 27.5274 21.0977 27.4984C21.0369 27.4584 20.9772 27.4175 20.9185 27.3744C20.8758 27.3436 20.8317 27.3148 20.7877 27.2859C20.7269 27.2459 20.6672 27.205 20.6085 27.1619C20.5658 27.1311 20.5217 27.1023 20.4777 27.0733C20.4169 27.0333 20.3572 26.9924 20.2985 26.9493C20.2558 26.9185 20.2117 26.8897 20.1677 26.8608C20.1069 26.8208 20.0472 26.7799 19.9885 26.7368C19.9458 26.706 19.9017 26.6772 19.8577 26.6482C19.7969 26.6082 19.7372 26.5673 19.6785 26.5242C19.6358 26.4934 19.5917 26.4646 19.5477 26.4357C19.4869 26.3957 19.4272 26.3548 19.3685 26.3117C19.3258 26.2809 19.2817 26.2521 19.2377 26.2231C19.1769 26.1831 19.1172 26.1422 19.0585 26.0991C19.0158 26.0683 18.9717 26.0395 18.9277 26.0106C18.8669 25.9706 18.8072 25.9297 18.7485 25.8866C18.7058 25.8558 18.6617 25.827 18.6177 25.798C18.5569 25.758 18.4972 25.7171 18.4385 25.674C18.3958 25.6432 18.3517 25.6145 18.3077 25.5855C18.2469 25.5455 18.1872 25.5046 18.1285 25.4615C18.0858 25.4307 18.0417 25.4019 17.9977 25.3729C17.9369 25.3329 17.8772 25.292 17.8185 25.2489C17.7758 25.2182 17.7317 25.1894 17.6877 25.1604C17.6262 25.1199 17.5658 25.0786 17.5065 25.035C17.4698 25.0084 17.4317 24.984 17.3936 24.9597C17.3791 24.9503 17.365 24.9403 17.3511 24.9301C17.3511 24.9243 17.3511 24.9184 17.3511 24.9124C19.1866 24.9124 21.0222 24.9124 22.9134 24.9124C22.8276 24.7623 22.7418 24.6123 22.6553 24.4627C22.6276 24.4148 22.6 24.3669 22.5724 24.319C22.5613 24.2999 22.5502 24.2807 22.5392 24.2615C21.9413 23.2253 21.9413 23.2253 21.9247 23.1965C21.9136 23.1774 21.9026 23.1582 21.8915 23.139C21.8637 23.0908 21.8359 23.0426 21.8081 22.9944C21.7548 22.9019 21.7013 22.8094 21.6474 22.7172C21.5993 22.6351 21.552 22.5526 21.5049 22.47C21.464 22.3983 21.4228 22.3268 21.3811 22.2556C21.3363 22.1791 21.2921 22.1023 21.2482 22.0253C21.1992 21.9392 21.1496 21.8534 21.0996 21.7679C21.0451 21.6747 20.9912 21.5811 20.9373 21.4876C20.9096 21.4395 20.8818 21.3914 20.8541 21.3434C20.843 21.3242 20.8319 21.305 20.8209 21.2858C20.8154 21.2763 20.8099 21.2668 20.8043 21.257C19.5587 19.0983 19.5587 19.0983 19.5421 19.0695C19.5311 19.0504 19.52 19.0312 19.5089 19.012C19.4811 18.9638 19.4533 18.9157 19.4256 18.8675C19.3722 18.7749 19.3187 18.6824 19.2648 18.5902C19.2168 18.5081 19.1694 18.4256 19.1223 18.343C19.0763 18.2622 19.0297 18.1817 18.9827 18.1014C18.9282 18.0082 18.8743 17.9147 18.8204 17.8211C18.7927 17.773 18.765 17.725 18.7372 17.6769C18.7262 17.6577 18.7151 17.6385 18.704 17.6194C18.6985 17.6099 18.6931 17.6004 18.6874 17.5906C17.309 15.2016 17.309 15.2016 17.2924 15.1728C17.2813 15.1537 17.2703 15.1345 17.2592 15.1153C17.2314 15.0671 17.2036 15.0189 17.1758 14.9707C17.1225 14.8782 17.069 14.7857 17.0151 14.6935C16.967 14.6114 16.9197 14.5289 16.8726 14.4463C16.8266 14.3655 16.78 14.285 16.733 14.2047C16.6785 14.1115 16.6246 14.018 16.5707 13.9244C16.543 13.8763 16.5153 13.8283 16.4875 13.7802C16.4764 13.761 16.4654 13.7418 16.4543 13.7226C16.4488 13.7131 16.4433 13.7036 16.4377 13.6939C15.8564 12.6865 15.8564 12.6865 15.8398 12.6577C15.8288 12.6385 15.8177 12.6194 15.8067 12.6002C15.7787 12.5518 15.7508 12.5034 15.723 12.455C15.7117 12.4354 15.7005 12.4159 15.6893 12.3964C15.6838 12.387 15.6784 12.3776 15.6728 12.3678C15.6455 12.3205 15.618 12.2733 15.59 12.2264C15.5846 12.2173 15.5793 12.2083 15.5737 12.199C15.5635 12.1819 15.5533 12.1648 15.543 12.1478C15.5385 12.1402 15.534 12.1327 15.5293 12.1249C15.5253 12.1183 15.5214 12.1117 15.5173 12.1049C15.5088 12.0887 15.5088 12.0887 15.5088 12.071C15.503 12.071 15.4971 12.071 15.4911 12.071C15.4886 12.0774 15.4862 12.0839 15.4836 12.0905C15.474 12.1137 15.4632 12.1348 15.4508 12.1567C15.4441 12.1686 15.4441 12.1686 15.4372 12.1807C15.4323 12.1893 15.4275 12.1978 15.4224 12.2066C15.4173 12.2156 15.4122 12.2245 15.407 12.2338C15.3606 12.3152 15.3134 12.3961 15.2661 12.4769C15.2164 12.5619 15.1673 12.6473 15.1181 12.7327C15.0904 12.7808 15.0627 12.8288 15.0349 12.8769C15.0239 12.8961 15.0128 12.9153 15.0017 12.9344C14.3707 14.0282 14.3707 14.0282 13.7396 15.1219C13.7341 15.1314 13.7286 15.1409 13.723 15.1507C13.7119 15.1699 13.7009 15.189 13.6898 15.2082C13.662 15.2564 13.6342 15.3046 13.6064 15.3528C13.5531 15.4454 13.4996 15.5378 13.4456 15.63C13.4007 15.7069 13.3563 15.7841 13.3122 15.8614C13.2632 15.9475 13.2136 16.0333 13.1636 16.1188C13.1091 16.212 13.0552 16.3056 13.0013 16.3991C12.9736 16.4472 12.9458 16.4953 12.9181 16.5433C12.907 16.5625 12.8959 16.5817 12.8849 16.6009C12.4642 17.3301 12.0434 18.0592 11.6227 18.7884C11.6173 18.7979 11.6118 18.8074 11.6061 18.8172C11.5951 18.8363 11.584 18.8555 11.5729 18.8747C11.5451 18.9229 11.5173 18.9711 11.4896 19.0193C11.4362 19.1118 11.3827 19.2043 11.3288 19.2965C11.2838 19.3733 11.2395 19.4505 11.1954 19.5279C11.1463 19.614 11.0968 19.6997 11.0467 19.7853C10.9922 19.8785 10.9383 19.972 10.8844 20.0656C10.8567 20.1137 10.829 20.1617 10.8012 20.2098C10.7902 20.229 10.7791 20.2482 10.768 20.2674C10.3916 20.9198 10.0152 21.5722 9.63873 22.2246C9.63325 22.2341 9.62777 22.2436 9.62212 22.2534C9.61106 22.2725 9.59999 22.2917 9.58893 22.3109C9.56112 22.3591 9.53333 22.4072 9.50556 22.4554C9.45222 22.548 9.39873 22.6405 9.34478 22.7327C9.29676 22.8148 9.24943 22.8973 9.20234 22.9799C9.15652 23.0603 9.11012 23.1403 9.06336 23.2202C9.02368 23.2881 8.98459 23.3563 8.94566 23.4246C8.89659 23.5107 8.84705 23.5965 8.79701 23.682C8.7425 23.7752 8.68859 23.8687 8.6347 23.9623C8.60699 24.0104 8.57925 24.0584 8.55152 24.1065C8.54045 24.1257 8.52937 24.1449 8.5183 24.1641C8.37437 24.4135 8.23045 24.663 8.08652 24.9124C9.90161 24.9124 11.7167 24.9124 13.5868 24.9124C13.5766 24.9431 13.57 24.947 13.5439 24.9647C13.5368 24.9696 13.5296 24.9745 13.5223 24.9795C13.5145 24.9848 13.5068 24.99 13.4988 24.9954C13.4825 25.0066 13.4662 25.0178 13.4499 25.0291C13.4376 25.0376 13.4376 25.0376 13.4249 25.0462C13.3894 25.0709 13.3544 25.0962 13.3194 25.1216C13.2686 25.1585 13.2175 25.1951 13.1661 25.2312C13.1141 25.2678 13.0625 25.3047 13.0111 25.3419C12.9535 25.3837 12.8956 25.4249 12.8374 25.4658C12.7917 25.4979 12.7464 25.5305 12.7011 25.5633C12.6186 25.6231 12.5355 25.6817 12.4522 25.7403C12.3745 25.7949 12.2973 25.8499 12.2204 25.9056C12.1695 25.9424 12.1183 25.9787 12.0669 26.0148C12.0212 26.047 11.9758 26.0796 11.9305 26.1124C11.8729 26.1541 11.815 26.1953 11.7569 26.2362C11.7112 26.2684 11.6658 26.301 11.6205 26.3338C11.5381 26.3936 11.4549 26.4522 11.3716 26.5108C11.294 26.5654 11.2167 26.6204 11.1398 26.6761C11.0889 26.7129 11.0377 26.7492 10.9863 26.7853C10.9406 26.8175 10.8952 26.8501 10.8499 26.8829C10.7924 26.9246 10.7345 26.9658 10.6763 27.0067C10.6306 27.0389 10.5852 27.0715 10.5399 27.1043C10.4824 27.146 10.4244 27.1873 10.3663 27.2281C10.3209 27.2601 10.2759 27.2925 10.2311 27.3252C10.1763 27.3649 10.121 27.4035 10.065 27.4414C10.0066 27.4809 9.94991 27.522 9.89389 27.5647C9.84203 27.6039 9.78843 27.6404 9.73453 27.6768C9.68908 27.7077 9.64477 27.7396 9.60109 27.773C9.54358 27.8168 9.48445 27.8577 9.42453 27.8982C9.37908 27.9291 9.33477 27.9611 9.29109 27.9944C9.23336 28.0384 9.17405 28.0795 9.11395 28.1202C9.06459 28.1537 9.01622 28.1883 8.9683 28.2238C8.92775 28.2538 8.88674 28.2831 8.84546 28.3121C8.79296 28.349 8.74076 28.3862 8.6888 28.4239C8.63123 28.4656 8.57332 28.5068 8.51515 28.5477C8.46945 28.5799 8.42407 28.6125 8.3788 28.6453C8.32121 28.687 8.26328 28.7282 8.2051 28.7691C8.15995 28.8009 8.11515 28.8332 8.07046 28.8656C8.00683 28.9117 7.94258 28.9569 7.87809 29.0019C7.8219 29.0411 7.76625 29.081 7.71078 29.1213C7.6665 29.1534 7.62197 29.1851 7.57723 29.2165C7.52529 29.253 7.47365 29.29 7.42223 29.3272C7.36466 29.3689 7.30675 29.4101 7.24858 29.451C7.20288 29.4832 7.1575 29.5158 7.11223 29.5486C7.02977 29.6083 6.9466 29.667 6.86331 29.7256C6.78568 29.7801 6.70841 29.8352 6.63156 29.8909C6.58066 29.9277 6.52941 29.964 6.47801 30.0001C6.43231 30.0323 6.38693 30.0649 6.34166 30.0977C6.28408 30.1394 6.22618 30.1806 6.16801 30.2215C6.12231 30.2537 6.07693 30.2863 6.03166 30.3191C5.97407 30.3608 5.91616 30.4021 5.85797 30.4429C5.8126 30.4749 5.76764 30.5073 5.72277 30.54C5.66806 30.5797 5.61269 30.6183 5.5567 30.6562C5.49836 30.6957 5.44163 30.7367 5.3856 30.7795C5.33374 30.8187 5.28015 30.8552 5.22625 30.8916C5.1808 30.9225 5.13649 30.9544 5.0928 30.9877C5.0354 31.0315 4.97637 31.0724 4.91656 31.1128C4.85615 31.1538 4.7977 31.1971 4.73962 31.2414C4.6886 31.2799 4.6886 31.2799 4.66534 31.2803C4.62875 31.2665 4.60722 31.2406 4.58075 31.2125C4.56968 31.201 4.5586 31.1896 4.5475 31.1782C4.53959 31.1701 4.53959 31.1701 4.53151 31.1617C4.50987 31.1399 4.48672 31.1201 4.46325 31.1002C4.43386 31.0742 4.4068 31.0458 4.37922 31.0179C4.36092 30.9998 4.34234 30.9828 4.32279 30.9662C4.28852 30.9369 4.25704 30.9051 4.22541 30.8731C4.19687 30.8443 4.16729 30.8175 4.13647 30.7912C4.10685 30.7648 4.07943 30.7362 4.05154 30.7079C4.03305 30.6897 4.01425 30.6725 3.99452 30.6556C3.95841 30.6248 3.92547 30.5912 3.89211 30.5574C3.87362 30.5391 3.85483 30.522 3.83509 30.5051C3.79899 30.4742 3.76604 30.4406 3.73268 30.4068C3.71419 30.3886 3.6954 30.3714 3.67566 30.3545C3.64773 30.3307 3.62178 30.3054 3.59595 30.2793C3.5703 30.2533 3.54455 30.2282 3.51679 30.2045C3.48252 30.1753 3.45104 30.1435 3.41941 30.1114C3.39087 30.0826 3.36129 30.0559 3.33047 30.0296C3.30085 30.0032 3.27343 29.9745 3.24554 29.9463C3.22705 29.9281 3.20825 29.9109 3.18852 29.894C3.15241 29.8632 3.11947 29.8295 3.08611 29.7958C3.06762 29.7775 3.04883 29.7603 3.02909 29.7435C2.99299 29.7126 2.96004 29.679 2.92668 29.6452C2.90819 29.627 2.8894 29.6098 2.86966 29.5929C2.84173 29.569 2.81578 29.5438 2.78995 29.5176C2.7643 29.4917 2.73855 29.4666 2.71079 29.4429C2.67652 29.4136 2.64504 29.3818 2.61341 29.3498C2.58487 29.321 2.55529 29.2942 2.52447 29.268C2.49485 29.2415 2.46743 29.2129 2.43954 29.1847C2.42105 29.1664 2.40225 29.1492 2.38252 29.1324C2.34641 29.1015 2.31347 29.0679 2.28011 29.0341C2.26162 29.0159 2.24283 28.9987 2.22309 28.9818C2.18699 28.951 2.15404 28.9173 2.12068 28.8836C2.10219 28.8653 2.0834 28.8481 2.06366 28.8313C2.03573 28.8074 2.00978 28.7821 1.98395 28.756C1.9583 28.73 1.93255 28.7049 1.90479 28.6813C1.87052 28.652 1.83904 28.6202 1.80741 28.5882C1.77887 28.5594 1.74929 28.5326 1.71847 28.5063C1.68885 28.4799 1.66143 28.4513 1.63354 28.4231C1.61505 28.4048 1.59625 28.3876 1.57652 28.3707C1.54041 28.3399 1.50747 28.3063 1.47411 28.2725C1.45562 28.2543 1.43683 28.2371 1.41709 28.2202C1.38099 28.1893 1.34804 28.1557 1.31468 28.1219C1.29619 28.1037 1.2774 28.0865 1.25766 28.0696C1.22973 28.0458 1.20378 28.0205 1.17795 27.9944C1.1523 27.9684 1.12655 27.9433 1.09879 27.9196C1.06452 27.8904 1.03304 27.8586 1.00141 27.8265C0.972873 27.7978 0.943291 27.771 0.912474 27.7447C0.882849 27.7183 0.855428 27.6897 0.827536 27.6614C0.809046 27.6432 0.790254 27.626 0.770518 27.6091C0.734414 27.5783 0.701472 27.5446 0.668107 27.5109C0.649618 27.4926 0.630826 27.4754 0.611089 27.4586C0.583154 27.4347 0.557205 27.4094 0.531375 27.3833C0.505725 27.3573 0.479982 27.3322 0.452214 27.3086C0.417949 27.2793 0.386466 27.2475 0.354842 27.2155C0.326301 27.1867 0.29672 27.1599 0.265903 27.1336C0.236278 27.1072 0.208857 27.0786 0.180964 27.0503C0.162475 27.0321 0.143683 27.0149 0.123946 26.998C0.095187 26.9731 0.066939 26.9478 0.0392501 26.9217C0.0315661 26.9145 0.0238822 26.9074 0.0159655 26.9C-5.35054e-05 26.8785 -5.35055e-05 26.8785 0.00179534 26.8579C0.00954888 26.8317 0.0201969 26.8112 0.0340603 26.7876C0.0419812 26.774 0.0419812 26.774 0.050062 26.7602C0.058685 26.7456 0.058685 26.7456 0.0674822 26.7307C0.0735032 26.7204 0.0795174 26.7101 0.0855252 26.6998C0.0980091 26.6784 0.110522 26.6571 0.123056 26.6357C0.151674 26.5869 0.179859 26.5379 0.208089 26.4888C0.219159 26.4696 0.23023 26.4504 0.241304 26.4312C0.246784 26.4217 0.252264 26.4122 0.257911 26.4025C0.274518 26.3737 0.291125 26.3449 0.307732 26.3161C0.313213 26.3066 0.318694 26.2971 0.324341 26.2873C0.335405 26.2682 0.346469 26.249 0.357534 26.2298C0.385339 26.1816 0.413131 26.1334 0.440901 26.0852C0.494241 25.9927 0.547731 25.9002 0.601679 25.808C0.646631 25.7311 0.691004 25.654 0.735089 25.5766C0.784158 25.4905 0.833703 25.4047 0.883743 25.3192C0.938251 25.226 0.992156 25.1325 1.04605 25.0389C1.07376 24.9908 1.1015 24.9428 1.12923 24.8947C1.1403 24.8755 1.15138 24.8563 1.16245 24.8371C1.72709 23.8585 1.72709 23.8585 2.29173 22.8799C2.29721 22.8704 2.30269 22.8609 2.30834 22.8511C2.3194 22.832 2.33047 22.8128 2.34153 22.7936C2.36934 22.7454 2.39713 22.6972 2.4249 22.649C2.47824 22.5565 2.53173 22.464 2.58568 22.3718C2.63063 22.2949 2.675 22.2178 2.71909 22.1404C2.76816 22.0543 2.8177 21.9685 2.86774 21.883C2.92225 21.7898 2.97616 21.6963 3.03005 21.6027C3.05776 21.5546 3.0855 21.5066 3.11323 21.4585C3.1243 21.4393 3.13537 21.4201 3.14645 21.4009C3.52287 20.7485 3.8993 20.0961 4.27573 19.4437C4.28121 19.4342 4.28669 19.4247 4.29234 19.4149C4.3034 19.3958 4.31447 19.3766 4.32553 19.3574C4.35334 19.3092 4.38113 19.261 4.4089 19.2128C4.46224 19.1203 4.51573 19.0278 4.56968 18.9356C4.61463 18.8588 4.659 18.7816 4.70309 18.7042C4.75216 18.6181 4.8017 18.5323 4.85174 18.4468C4.90625 18.3536 4.96016 18.2601 5.01405 18.1665C5.04176 18.1184 5.0695 18.0704 5.09723 18.0223C5.1083 18.0031 5.11938 17.9839 5.13045 17.9647C5.50687 17.3123 5.8833 16.6599 6.25973 16.0075C6.26521 15.998 6.27069 15.9885 6.27634 15.9787C6.2874 15.9596 6.29847 15.9404 6.30953 15.9212C6.33734 15.873 6.36513 15.8249 6.3929 15.7766C6.44624 15.6841 6.49973 15.5916 6.55368 15.4994C6.59863 15.4226 6.643 15.3454 6.68709 15.268C6.73616 15.1819 6.7857 15.0962 6.83574 15.0106C6.89025 14.9174 6.94416 14.8239 6.99805 14.7303C7.02576 14.6822 7.0535 14.6342 7.08123 14.5861C7.0923 14.5669 7.10337 14.5477 7.11445 14.5286C7.53516 13.7994 7.95587 13.0702 8.37659 12.3411C8.38207 12.3316 8.38755 12.3221 8.3932 12.3123C8.40426 12.2931 8.41533 12.2739 8.42639 12.2548C8.4542 12.2066 8.48199 12.1584 8.50976 12.1102C8.5631 12.0176 8.61659 11.9252 8.67054 11.833C8.71549 11.7561 8.75986 11.6789 8.80395 11.6016C8.85302 11.5155 8.90256 11.4297 8.9526 11.3442C9.00711 11.251 9.06101 11.1574 9.11491 11.0639C9.14261 11.0158 9.17035 10.9677 9.19809 10.9197C9.20916 10.9005 9.22023 10.8813 9.2313 10.8621C9.60773 10.2097 9.98416 9.55729 10.3606 8.90488C10.3661 8.89538 10.3716 8.88588 10.3772 8.87609C10.3883 8.85692 10.3993 8.83775 10.4104 8.81857C10.4382 8.77039 10.466 8.7222 10.4938 8.674C10.5471 8.58144 10.6006 8.48897 10.6545 8.39676C10.6995 8.31991 10.7439 8.24274 10.7879 8.16539C10.837 8.0793 10.8866 7.9935 10.9366 7.90797C10.9911 7.81477 11.045 7.72122 11.0989 7.62766C11.1266 7.57959 11.1544 7.53153 11.1821 7.48347C11.1932 7.46428 11.2042 7.44509 11.2153 7.4259C11.5917 6.7735 11.9682 6.12109 12.3446 5.46869C12.3501 5.45919 12.3556 5.44969 12.3612 5.4399C12.3723 5.42073 12.3833 5.40155 12.3944 5.38238C12.4222 5.3342 12.45 5.28601 12.4778 5.2378C12.5311 5.14524 12.5846 5.05277 12.6385 4.96056C12.6835 4.88371 12.7279 4.80655 12.7719 4.7292C12.821 4.6431 12.8706 4.55731 12.9206 4.47177C12.9751 4.37857 13.029 4.28503 13.0829 4.19147C13.1106 4.14339 13.1384 4.09533 13.1661 4.04727C13.1772 4.02808 13.1882 4.00889 13.1993 3.98971C13.5757 3.3373 13.9522 2.6849 14.3286 2.03249C14.3341 2.02299 14.3396 2.01349 14.3452 2.0037C14.3563 1.98453 14.3673 1.96536 14.3784 1.94618C14.4062 1.898 14.434 1.84981 14.4618 1.80161C14.5151 1.70905 14.5686 1.61658 14.6225 1.52437C14.6675 1.44752 14.7119 1.37035 14.7559 1.293C14.805 1.20691 14.8546 1.12111 14.9046 1.03558C14.9591 0.942378 15.013 0.84883 15.0669 0.755274C15.0946 0.707195 15.1224 0.659137 15.1501 0.611076C15.1612 0.591888 15.1722 0.572699 15.1833 0.553511C15.2054 0.515134 15.2276 0.476757 15.2497 0.438381C15.2552 0.428867 15.2607 0.419353 15.2664 0.40955C15.2773 0.390519 15.2883 0.371489 15.2993 0.352461C15.3253 0.307511 15.3512 0.262544 15.377 0.217515C15.3892 0.196249 15.4014 0.174993 15.4136 0.153738C15.4222 0.138733 15.4308 0.123715 15.4394 0.108696C15.4446 0.0996084 15.4499 0.0905212 15.4552 0.0811585C15.4598 0.0731629 15.4644 0.0651673 15.4691 0.0569295C15.4814 0.0367929 15.4935 0.0179261 15.5088 0Z" fill="#6366F1"/>
</g>
<defs>
<clipPath id="clip0_20_11">
<rect width="31" height="31.28" fill="white"/>
</clipPath>
</defs>
</svg>
