<svg width="177" height="38" viewBox="0 0 177 38" fill="none" xmlns="http://www.w3.org/2000/svg">
<path d="M40.6 30L49.09 8.91H52.42L60.88 30H56.53L49.99 12.69H51.49L44.86 30H40.6ZM45.1 26.07V22.65H56.44V26.07H45.1ZM71.2253 30.3C70.1853 30.3 69.2453 30.09 68.4053 29.67C67.5653 29.23 66.8953 28.64 66.3953 27.9C65.8953 27.16 65.6253 26.31 65.5853 25.35V20.22C65.6253 19.26 65.8953 18.41 66.3953 17.67C66.9153 16.91 67.5853 16.31 68.4053 15.87C69.2453 15.43 70.1853 15.21 71.2253 15.21C72.5653 15.21 73.7653 15.54 74.8253 16.2C75.8853 16.86 76.7153 17.76 77.3153 18.9C77.9353 20.04 78.2453 21.33 78.2453 22.77C78.2453 24.19 77.9353 25.47 77.3153 26.61C76.7153 27.75 75.8853 28.65 74.8253 29.31C73.7653 29.97 72.5653 30.3 71.2253 30.3ZM63.1853 36.06V15.51H67.1153V19.32L66.4553 22.83L67.0853 26.34V36.06H63.1853ZM70.5353 26.67C71.2553 26.67 71.8953 26.51 72.4553 26.19C73.0153 25.85 73.4453 25.39 73.7453 24.81C74.0653 24.21 74.2253 23.52 74.2253 22.74C74.2253 21.98 74.0653 21.31 73.7453 20.73C73.4453 20.13 73.0153 19.67 72.4553 19.35C71.8953 19.01 71.2553 18.84 70.5353 18.84C69.8353 18.84 69.2053 19.01 68.6453 19.35C68.0853 19.67 67.6453 20.13 67.3253 20.73C67.0253 21.31 66.8753 21.98 66.8753 22.74C66.8753 23.52 67.0253 24.21 67.3253 24.81C67.6453 25.39 68.0753 25.85 68.6153 26.19C69.1753 26.51 69.8153 26.67 70.5353 26.67ZM87.752 30.3C86.232 30.3 84.882 29.98 83.702 29.34C82.522 28.68 81.582 27.78 80.882 26.64C80.202 25.5 79.862 24.2 79.862 22.74C79.862 21.3 80.192 20.02 80.852 18.9C81.532 17.76 82.452 16.86 83.612 16.2C84.772 15.52 86.062 15.18 87.482 15.18C88.882 15.18 90.112 15.5 91.172 16.14C92.252 16.76 93.092 17.62 93.692 18.72C94.312 19.8 94.622 21.03 94.622 22.41C94.622 22.67 94.602 22.94 94.562 23.22C94.542 23.48 94.492 23.78 94.412 24.12L82.232 24.15V21.21L92.582 21.18L90.992 22.41C90.952 21.55 90.792 20.83 90.512 20.25C90.252 19.67 89.862 19.23 89.342 18.93C88.842 18.61 88.222 18.45 87.482 18.45C86.702 18.45 86.022 18.63 85.442 18.99C84.862 19.33 84.412 19.82 84.092 20.46C83.792 21.08 83.642 21.82 83.642 22.68C83.642 23.56 83.802 24.33 84.122 24.99C84.462 25.63 84.942 26.13 85.562 26.49C86.182 26.83 86.902 27 87.722 27C88.462 27 89.132 26.88 89.732 26.64C90.332 26.38 90.852 26 91.292 25.5L93.602 27.81C92.902 28.63 92.042 29.25 91.022 29.67C90.022 30.09 88.932 30.3 87.752 30.3ZM105.732 30L101.922 24.12L101.112 23.52L95.4716 15.51H100.122L103.632 20.82L104.382 21.39L110.352 30H105.732ZM95.1716 30L101.082 21.72L103.332 24.39L99.6116 30H95.1716ZM104.532 23.49L102.222 20.85L105.672 15.51H110.082L104.532 23.49ZM118.015 30V9.36H122.125V30H118.015ZM111.295 12.54V8.91H128.845V12.54H111.295ZM134.492 30.3C133.212 30.3 132.072 30.03 131.072 29.49C130.092 28.95 129.322 28.2 128.762 27.24C128.202 26.28 127.922 25.17 127.922 23.91V15.51H131.882V23.82C131.882 24.42 131.982 24.94 132.182 25.38C132.382 25.8 132.682 26.12 133.082 26.34C133.482 26.56 133.952 26.67 134.492 26.67C135.312 26.67 135.952 26.42 136.412 25.92C136.872 25.42 137.102 24.72 137.102 23.82V15.51H141.032V23.91C141.032 25.19 140.752 26.31 140.192 27.27C139.652 28.23 138.882 28.98 137.882 29.52C136.902 30.04 135.772 30.3 134.492 30.3ZM152.202 30.3C151.162 30.3 150.222 30.08 149.382 29.64C148.542 29.2 147.872 28.6 147.372 27.84C146.872 27.08 146.602 26.23 146.562 25.29V20.13C146.602 19.19 146.872 18.35 147.372 17.61C147.892 16.85 148.572 16.26 149.412 15.84C150.252 15.42 151.182 15.21 152.202 15.21C153.542 15.21 154.742 15.54 155.802 16.2C156.862 16.86 157.692 17.76 158.292 18.9C158.912 20.04 159.222 21.33 159.222 22.77C159.222 24.19 158.912 25.47 158.292 26.61C157.692 27.75 156.862 28.65 155.802 29.31C154.742 29.97 153.542 30.3 152.202 30.3ZM144.162 30V8.31H148.092V19.08L147.432 22.56L148.062 26.1V30H144.162ZM151.542 26.67C152.262 26.67 152.892 26.51 153.432 26.19C153.992 25.85 154.422 25.39 154.722 24.81C155.042 24.21 155.202 23.52 155.202 22.74C155.202 21.98 155.042 21.31 154.722 20.73C154.422 20.13 153.992 19.67 153.432 19.35C152.872 19.01 152.232 18.84 151.512 18.84C150.792 18.84 150.152 19.01 149.592 19.35C149.052 19.67 148.622 20.13 148.302 20.73C148.002 21.31 147.852 21.98 147.852 22.74C147.852 23.52 148.002 24.21 148.302 24.81C148.622 25.39 149.062 25.85 149.622 26.19C150.182 26.51 150.822 26.67 151.542 26.67ZM168.729 30.3C167.209 30.3 165.859 29.98 164.679 29.34C163.499 28.68 162.559 27.78 161.859 26.64C161.179 25.5 160.839 24.2 160.839 22.74C160.839 21.3 161.169 20.02 161.829 18.9C162.509 17.76 163.429 16.86 164.589 16.2C165.749 15.52 167.039 15.18 168.459 15.18C169.859 15.18 171.089 15.5 172.149 16.14C173.229 16.76 174.069 17.62 174.669 18.72C175.289 19.8 175.599 21.03 175.599 22.41C175.599 22.67 175.579 22.94 175.539 23.22C175.519 23.48 175.469 23.78 175.389 24.12L163.209 24.15V21.21L173.559 21.18L171.969 22.41C171.929 21.55 171.769 20.83 171.489 20.25C171.229 19.67 170.839 19.23 170.319 18.93C169.819 18.61 169.199 18.45 168.459 18.45C167.679 18.45 166.999 18.63 166.419 18.99C165.839 19.33 165.389 19.82 165.069 20.46C164.769 21.08 164.619 21.82 164.619 22.68C164.619 23.56 164.779 24.33 165.099 24.99C165.439 25.63 165.919 26.13 166.539 26.49C167.159 26.83 167.879 27 168.699 27C169.439 27 170.109 26.88 170.709 26.64C171.309 26.38 171.829 26 172.269 25.5L174.579 27.81C173.879 28.63 173.019 29.25 171.999 29.67C170.999 30.09 169.909 30.3 168.729 30.3Z" fill="#1F2937"/>
<g clip-path="url(#clip0_3_143)">
<path d="M15.5088 3C15.5146 3 15.5205 3 15.5265 3C15.5298 3.00592 15.5331 3.01184 15.5365 3.01794C15.6192 3.16656 15.6192 3.16656 15.7046 3.31363C15.7378 3.36954 15.7703 3.4258 15.8027 3.48211C15.8084 3.49191 15.8141 3.50172 15.8199 3.51182C15.8315 3.53193 15.843 3.55204 15.8546 3.57215C15.8825 3.62057 15.9104 3.66896 15.9384 3.71735C15.9494 3.73654 15.9605 3.75573 15.9716 3.77492C15.9771 3.78441 15.9825 3.79391 15.9882 3.8037C16.1709 4.12031 16.1709 4.12031 16.1875 4.14909C16.1985 4.16827 16.2096 4.18744 16.2207 4.20661C16.2485 4.2548 16.2763 4.30299 16.304 4.35119C16.3574 4.44375 16.4109 4.53622 16.4648 4.62843C16.5128 4.71053 16.5602 4.79301 16.6073 4.87564C16.6533 4.95644 16.6999 5.03693 16.7469 5.11722C16.8014 5.21042 16.8553 5.30397 16.9092 5.39752C16.9369 5.4456 16.9646 5.49366 16.9924 5.54172C17.0034 5.56091 17.0145 5.5801 17.0256 5.59929C17.0311 5.60879 17.0365 5.61828 17.0422 5.62807C18.1549 7.5565 18.1549 7.5565 18.1715 7.58529C18.1825 7.60446 18.1936 7.62364 18.2047 7.64281C18.2325 7.69099 18.2603 7.73918 18.288 7.78738C18.3414 7.87995 18.3949 7.97241 18.4488 8.06462C18.4968 8.14672 18.5442 8.2292 18.5913 8.31183C18.6373 8.39264 18.6839 8.47313 18.7309 8.55341C18.7854 8.64662 18.8393 8.74016 18.8932 8.83372C18.9209 8.8818 18.9486 8.92986 18.9764 8.97792C18.9874 8.99711 18.9985 9.01629 19.0096 9.03548C19.0151 9.04498 19.0205 9.05448 19.0262 9.06426C20.1389 10.9927 20.1389 10.9927 20.1555 11.0215C20.1665 11.0407 20.1776 11.0598 20.1887 11.079C20.2165 11.1272 20.2443 11.1754 20.272 11.2236C20.3254 11.3161 20.3789 11.4086 20.4328 11.5008C20.4808 11.5829 20.5282 11.6654 20.5753 11.748C20.6213 11.8288 20.6679 11.9093 20.7149 11.9896C20.7694 12.0828 20.8233 12.1764 20.8772 12.2699C20.9049 12.318 20.9326 12.3661 20.9604 12.4141C20.9714 12.4333 20.9825 12.4525 20.9936 12.4717C20.9991 12.4812 21.0045 12.4907 21.0102 12.5005C22.1229 14.4289 22.1229 14.4289 22.1395 14.4577C22.1505 14.4769 22.1616 14.496 22.1727 14.5152C22.2005 14.5634 22.2283 14.6116 22.256 14.6598C22.3094 14.7523 22.3629 14.8448 22.4168 14.937C22.4648 15.0191 22.5122 15.1016 22.5593 15.1842C22.6053 15.265 22.6519 15.3455 22.6989 15.4258C22.7534 15.519 22.8073 15.6126 22.8612 15.7061C22.8889 15.7542 22.9166 15.8022 22.9444 15.8503C22.9554 15.8695 22.9665 15.8887 22.9776 15.9079C22.9831 15.9174 22.9886 15.9269 22.9942 15.9367C24.1069 17.8651 24.1069 17.8651 24.1235 17.8939C24.1345 17.913 24.1456 17.9322 24.1567 17.9514C24.1845 17.9996 24.2123 18.0478 24.24 18.096C24.2934 18.1885 24.3469 18.281 24.4008 18.3732C24.4488 18.4553 24.4962 18.5378 24.5433 18.6204C24.5893 18.7012 24.6359 18.7817 24.6829 18.862C24.7374 18.9552 24.7913 19.0487 24.8452 19.1423C24.8729 19.1904 24.9006 19.2384 24.9284 19.2865C24.9394 19.3057 24.9505 19.3249 24.9616 19.3441C24.9671 19.3536 24.9725 19.3631 24.9782 19.3728C26.2237 21.5315 26.2237 21.5315 26.2403 21.5603C26.2514 21.5795 26.2625 21.5987 26.2735 21.6178C26.3013 21.666 26.3291 21.7142 26.3569 21.7624C26.4102 21.855 26.4637 21.9475 26.5177 22.0397C26.5657 22.1218 26.613 22.2042 26.6601 22.2869C26.7062 22.3677 26.7528 22.4482 26.7997 22.5285C26.8542 22.6217 26.9082 22.7152 26.9621 22.8088C26.9898 22.8568 27.0175 22.9049 27.0452 22.953C27.0563 22.9721 27.0674 22.9913 27.0784 23.0105C27.0839 23.02 27.0894 23.0295 27.0951 23.0393C28.2077 24.9677 28.2077 24.9677 28.2243 24.9965C28.2354 25.0157 28.2465 25.0349 28.2575 25.054C28.2853 25.1022 28.3131 25.1504 28.3409 25.1986C28.3942 25.2912 28.4477 25.3836 28.5017 25.4759C28.5497 25.558 28.597 25.6404 28.6441 25.7231C28.6902 25.8039 28.7368 25.8844 28.7837 25.9646C28.8382 26.0578 28.8922 26.1514 28.9461 26.245C28.9738 26.293 29.0015 26.3411 29.0292 26.3892C29.0403 26.4083 29.0514 26.4275 29.0624 26.4467C29.0679 26.4562 29.0734 26.4657 29.0791 26.4755C30.1917 28.4039 30.1917 28.4039 30.2083 28.4327C30.2194 28.4519 30.2305 28.4711 30.2415 28.4902C30.2693 28.5384 30.2971 28.5866 30.3249 28.6348C30.3782 28.7274 30.4317 28.8198 30.4857 28.9121C30.5337 28.9942 30.581 29.0766 30.6281 29.1593C30.6741 29.24 30.7206 29.3204 30.7676 29.4005C30.8125 29.4773 30.8569 29.5543 30.9012 29.6314C30.9064 29.6404 30.9116 29.6494 30.9169 29.6587C30.9243 29.6717 30.9243 29.6717 30.9319 29.6849C30.9419 29.7018 30.9522 29.7185 30.9628 29.735C30.9702 29.7466 30.9702 29.7466 30.9778 29.7584C30.9823 29.7652 30.9868 29.7719 30.9914 29.7789C31.0028 29.8053 31.0013 29.8162 30.9911 29.8431C30.9765 29.8606 30.9623 29.8758 30.9459 29.8914C30.9413 29.8959 30.9368 29.9004 30.9321 29.905C30.9175 29.9193 30.9028 29.9335 30.8881 29.9477C30.8736 29.9618 30.8592 29.9759 30.8447 29.9901C30.8358 29.9989 30.8268 30.0076 30.8177 30.0163C30.7938 30.0396 30.7713 30.0636 30.7496 30.0889C30.7122 30.1321 30.6718 30.1721 30.6313 30.2123C30.6232 30.2202 30.6152 30.2282 30.607 30.2365C30.5772 30.2661 30.5474 30.2957 30.5176 30.3253C30.4883 30.3544 30.459 30.3835 30.4298 30.4126C30.4221 30.4202 30.4145 30.4277 30.4067 30.4355C30.369 30.473 30.3331 30.5111 30.2985 30.5513C30.267 30.5868 30.2329 30.6198 30.1992 30.6531C30.1914 30.6609 30.1836 30.6687 30.1755 30.6767C30.1465 30.7056 30.1174 30.7345 30.0884 30.7633C30.0598 30.7917 30.0312 30.8201 30.0027 30.8485C29.9915 30.8595 29.9915 30.8595 29.9802 30.8708C29.9486 30.9023 29.9176 30.9338 29.8885 30.9677C29.8519 31.0103 29.812 31.0495 29.7721 31.089C29.7641 31.097 29.7561 31.105 29.7478 31.1132C29.7181 31.1428 29.6883 31.1724 29.6585 31.202C29.6292 31.2311 29.5999 31.2602 29.5706 31.2894C29.563 31.2969 29.5554 31.3045 29.5475 31.3123C29.5154 31.3442 29.4839 31.3762 29.4544 31.4106C29.4178 31.4532 29.378 31.4923 29.3381 31.5318C29.3301 31.5398 29.3221 31.5478 29.3138 31.556C29.2841 31.5857 29.2543 31.6152 29.2245 31.6448C29.1952 31.6739 29.1659 31.7031 29.1366 31.7322C29.129 31.7397 29.1214 31.7473 29.1135 31.7551C29.0759 31.7925 29.0399 31.8306 29.0053 31.8709C28.9738 31.9063 28.9398 31.9393 28.9061 31.9727C28.8982 31.9805 28.8904 31.9883 28.8823 31.9963C28.8533 32.0252 28.8243 32.054 28.7952 32.0829C28.7666 32.1113 28.7381 32.1397 28.7095 32.1681C28.6984 32.1791 28.6984 32.1791 28.687 32.1904C28.6554 32.2218 28.6244 32.2534 28.5954 32.2872C28.5587 32.3298 28.5189 32.3691 28.479 32.4086C28.471 32.4166 28.4629 32.4246 28.4547 32.4328C28.4249 32.4624 28.3951 32.492 28.3653 32.5216C28.336 32.5507 28.3067 32.5798 28.2775 32.609C28.2699 32.6165 28.2622 32.6241 28.2544 32.6318C28.2223 32.6638 28.1908 32.6958 28.1612 32.7302C28.1246 32.7727 28.0849 32.8119 28.045 32.8514C28.037 32.8594 28.0289 32.8674 28.0207 32.8756C27.9909 32.9052 27.9611 32.9348 27.9313 32.9644C27.902 32.9935 27.8727 33.0226 27.8435 33.0518C27.8359 33.0593 27.8282 33.0669 27.8204 33.0746C27.7828 33.1121 27.7468 33.1502 27.7122 33.1905C27.6807 33.2259 27.6466 33.2589 27.6129 33.2923C27.6051 33.3001 27.5973 33.3078 27.5892 33.3159C27.5602 33.3448 27.5311 33.3736 27.5021 33.4025C27.4735 33.4308 27.4449 33.4592 27.4164 33.4877C27.4053 33.4987 27.4053 33.4987 27.3939 33.5099C27.3623 33.5414 27.3313 33.573 27.3022 33.6068C27.2656 33.6494 27.2257 33.6886 27.1858 33.7282C27.1778 33.7361 27.1698 33.7441 27.1615 33.7524C27.1318 33.782 27.102 33.8116 27.0722 33.8412C27.0429 33.8703 27.0136 33.8994 26.9843 33.9285C26.9767 33.9361 26.9691 33.9436 26.9612 33.9514C26.9229 33.9895 26.8861 34.0283 26.8508 34.0693C26.8193 34.1057 26.7854 34.1399 26.7516 34.1742C26.7428 34.1832 26.7341 34.1922 26.7254 34.2013C26.7127 34.2146 26.6999 34.2277 26.687 34.2407C26.6795 34.2485 26.6719 34.2563 26.6642 34.2642C26.6422 34.28 26.6422 34.28 26.6188 34.279C26.5908 34.2685 26.5704 34.2532 26.5465 34.2352C26.479 34.1853 26.4093 34.1391 26.3392 34.093C26.2964 34.0647 26.2542 34.0359 26.2128 34.0055C26.1622 33.9684 26.1101 33.9337 26.0577 33.8992C25.9969 33.8592 25.9372 33.8183 25.8785 33.7752C25.8358 33.7444 25.7917 33.7156 25.7477 33.6866C25.6869 33.6466 25.6272 33.6057 25.5685 33.5627C25.5258 33.5319 25.4817 33.5031 25.4377 33.4741C25.3769 33.4341 25.3172 33.3932 25.2585 33.3501C25.2158 33.3193 25.1717 33.2905 25.1277 33.2615C25.0669 33.2215 25.0072 33.1806 24.9485 33.1376C24.9058 33.1068 24.8617 33.078 24.8177 33.049C24.7569 33.009 24.6972 32.9681 24.6385 32.925C24.5958 32.8942 24.5517 32.8654 24.5077 32.8364C24.4469 32.7964 24.3872 32.7555 24.3285 32.7125C24.2858 32.6817 24.2417 32.6529 24.1977 32.6239C24.1369 32.5839 24.0772 32.543 24.0185 32.4999C23.9758 32.4691 23.9317 32.4403 23.8877 32.4114C23.8269 32.3714 23.7672 32.3304 23.7085 32.2874C23.6658 32.2566 23.6217 32.2278 23.5777 32.1988C23.5169 32.1588 23.4572 32.1179 23.3985 32.0748C23.3558 32.044 23.3117 32.0152 23.2677 31.9863C23.2069 31.9463 23.1472 31.9053 23.0885 31.8623C23.0458 31.8315 23.0017 31.8027 22.9577 31.7737C22.8969 31.7337 22.8372 31.6928 22.7785 31.6497C22.7358 31.6189 22.6917 31.5901 22.6477 31.5612C22.5869 31.5212 22.5272 31.4802 22.4685 31.4372C22.4258 31.4064 22.3817 31.3776 22.3377 31.3486C22.2769 31.3086 22.2172 31.2677 22.1585 31.2246C22.1158 31.1938 22.0717 31.165 22.0277 31.1361C21.9669 31.0961 21.9072 31.0551 21.8485 31.0121C21.8058 30.9813 21.7617 30.9525 21.7177 30.9235C21.6569 30.8835 21.5972 30.8426 21.5385 30.7995C21.4958 30.7687 21.4517 30.7399 21.4077 30.711C21.3469 30.671 21.2872 30.6301 21.2285 30.587C21.1858 30.5562 21.1417 30.5274 21.0977 30.4984C21.0369 30.4584 20.9772 30.4175 20.9185 30.3744C20.8758 30.3436 20.8317 30.3148 20.7877 30.2859C20.7269 30.2459 20.6672 30.205 20.6085 30.1619C20.5658 30.1311 20.5217 30.1023 20.4777 30.0733C20.4169 30.0333 20.3572 29.9924 20.2985 29.9493C20.2558 29.9185 20.2117 29.8897 20.1677 29.8608C20.1069 29.8208 20.0472 29.7799 19.9885 29.7368C19.9458 29.706 19.9017 29.6772 19.8577 29.6482C19.7969 29.6082 19.7372 29.5673 19.6785 29.5242C19.6358 29.4934 19.5917 29.4646 19.5477 29.4357C19.4869 29.3957 19.4272 29.3548 19.3685 29.3117C19.3258 29.2809 19.2817 29.2521 19.2377 29.2231C19.1769 29.1831 19.1172 29.1422 19.0585 29.0991C19.0158 29.0683 18.9717 29.0395 18.9277 29.0106C18.8669 28.9706 18.8072 28.9297 18.7485 28.8866C18.7058 28.8558 18.6617 28.827 18.6177 28.798C18.5569 28.758 18.4972 28.7171 18.4385 28.674C18.3958 28.6432 18.3517 28.6145 18.3077 28.5855C18.2469 28.5455 18.1872 28.5046 18.1285 28.4615C18.0858 28.4307 18.0417 28.4019 17.9977 28.3729C17.9369 28.3329 17.8772 28.292 17.8185 28.2489C17.7758 28.2182 17.7317 28.1894 17.6877 28.1604C17.6262 28.1199 17.5658 28.0786 17.5065 28.035C17.4698 28.0084 17.4317 27.984 17.3936 27.9597C17.3791 27.9503 17.365 27.9403 17.3511 27.9301C17.3511 27.9243 17.3511 27.9184 17.3511 27.9124C19.1866 27.9124 21.0222 27.9124 22.9134 27.9124C22.8276 27.7623 22.7418 27.6123 22.6553 27.4627C22.6276 27.4148 22.6 27.3669 22.5724 27.319C22.5613 27.2999 22.5502 27.2807 22.5392 27.2615C21.9413 26.2253 21.9413 26.2253 21.9247 26.1965C21.9136 26.1774 21.9026 26.1582 21.8915 26.139C21.8637 26.0908 21.8359 26.0426 21.8081 25.9944C21.7548 25.9019 21.7013 25.8094 21.6474 25.7172C21.5993 25.6351 21.552 25.5526 21.5049 25.47C21.464 25.3983 21.4228 25.3268 21.3811 25.2556C21.3363 25.1791 21.2921 25.1023 21.2482 25.0253C21.1992 24.9392 21.1496 24.8534 21.0996 24.7679C21.0451 24.6747 20.9912 24.5811 20.9373 24.4876C20.9096 24.4395 20.8818 24.3914 20.8541 24.3434C20.843 24.3242 20.8319 24.305 20.8209 24.2858C20.8154 24.2763 20.8099 24.2668 20.8043 24.257C19.5587 22.0983 19.5587 22.0983 19.5421 22.0695C19.5311 22.0504 19.52 22.0312 19.5089 22.012C19.4811 21.9638 19.4533 21.9157 19.4256 21.8675C19.3722 21.7749 19.3187 21.6824 19.2648 21.5902C19.2168 21.5081 19.1694 21.4256 19.1223 21.343C19.0763 21.2622 19.0297 21.1817 18.9827 21.1014C18.9282 21.0082 18.8743 20.9147 18.8204 20.8211C18.7927 20.773 18.765 20.725 18.7372 20.6769C18.7262 20.6577 18.7151 20.6385 18.704 20.6194C18.6985 20.6099 18.6931 20.6004 18.6874 20.5906C17.309 18.2016 17.309 18.2016 17.2924 18.1728C17.2813 18.1537 17.2703 18.1345 17.2592 18.1153C17.2314 18.0671 17.2036 18.0189 17.1758 17.9707C17.1225 17.8782 17.069 17.7857 17.0151 17.6935C16.967 17.6114 16.9197 17.5289 16.8726 17.4463C16.8266 17.3655 16.78 17.285 16.733 17.2047C16.6785 17.1115 16.6246 17.018 16.5707 16.9244C16.543 16.8763 16.5153 16.8283 16.4875 16.7802C16.4764 16.761 16.4654 16.7418 16.4543 16.7226C16.4488 16.7131 16.4433 16.7036 16.4377 16.6939C15.8564 15.6865 15.8564 15.6865 15.8398 15.6577C15.8288 15.6385 15.8177 15.6194 15.8067 15.6002C15.7787 15.5518 15.7508 15.5034 15.723 15.455C15.7117 15.4354 15.7005 15.4159 15.6893 15.3964C15.6838 15.387 15.6784 15.3776 15.6728 15.3678C15.6455 15.3205 15.618 15.2733 15.59 15.2264C15.5846 15.2173 15.5793 15.2083 15.5737 15.199C15.5635 15.1819 15.5533 15.1648 15.543 15.1478C15.5385 15.1402 15.534 15.1327 15.5293 15.1249C15.5253 15.1183 15.5214 15.1117 15.5173 15.1049C15.5088 15.0887 15.5088 15.0887 15.5088 15.071C15.503 15.071 15.4971 15.071 15.4911 15.071C15.4886 15.0774 15.4862 15.0839 15.4836 15.0905C15.474 15.1137 15.4632 15.1348 15.4508 15.1567C15.4441 15.1686 15.4441 15.1686 15.4372 15.1807C15.4323 15.1893 15.4275 15.1978 15.4224 15.2066C15.4173 15.2156 15.4122 15.2245 15.407 15.2338C15.3606 15.3152 15.3134 15.3961 15.2661 15.4769C15.2164 15.5619 15.1673 15.6473 15.1181 15.7327C15.0904 15.7808 15.0627 15.8288 15.0349 15.8769C15.0239 15.8961 15.0128 15.9153 15.0017 15.9344C14.3707 17.0282 14.3707 17.0282 13.7396 18.1219C13.7341 18.1314 13.7286 18.1409 13.723 18.1507C13.7119 18.1699 13.7009 18.189 13.6898 18.2082C13.662 18.2564 13.6342 18.3046 13.6064 18.3528C13.5531 18.4454 13.4996 18.5378 13.4456 18.63C13.4007 18.7069 13.3563 18.7841 13.3122 18.8614C13.2632 18.9475 13.2136 19.0333 13.1636 19.1188C13.1091 19.212 13.0552 19.3056 13.0013 19.3991C12.9736 19.4472 12.9458 19.4953 12.9181 19.5433C12.907 19.5625 12.8959 19.5817 12.8849 19.6009C12.4642 20.3301 12.0434 21.0592 11.6227 21.7884C11.6173 21.7979 11.6118 21.8074 11.6061 21.8172C11.5951 21.8363 11.584 21.8555 11.5729 21.8747C11.5451 21.9229 11.5173 21.9711 11.4896 22.0193C11.4362 22.1118 11.3827 22.2043 11.3288 22.2965C11.2838 22.3733 11.2395 22.4505 11.1954 22.5279C11.1463 22.614 11.0968 22.6997 11.0467 22.7853C10.9922 22.8785 10.9383 22.972 10.8844 23.0656C10.8567 23.1137 10.829 23.1617 10.8012 23.2098C10.7902 23.229 10.7791 23.2482 10.768 23.2674C10.3916 23.9198 10.0152 24.5722 9.63873 25.2246C9.63325 25.2341 9.62777 25.2436 9.62212 25.2534C9.61106 25.2725 9.59999 25.2917 9.58893 25.3109C9.56112 25.3591 9.53333 25.4072 9.50556 25.4554C9.45222 25.548 9.39873 25.6405 9.34478 25.7327C9.29676 25.8148 9.24943 25.8973 9.20234 25.9799C9.15652 26.0603 9.11012 26.1403 9.06336 26.2202C9.02368 26.2881 8.98459 26.3563 8.94566 26.4246C8.89659 26.5107 8.84705 26.5965 8.79701 26.682C8.7425 26.7752 8.68859 26.8687 8.6347 26.9623C8.60699 27.0104 8.57925 27.0584 8.55152 27.1065C8.54045 27.1257 8.52937 27.1449 8.5183 27.1641C8.37437 27.4135 8.23045 27.663 8.08652 27.9124C9.90161 27.9124 11.7167 27.9124 13.5868 27.9124C13.5766 27.9431 13.57 27.947 13.5439 27.9647C13.5368 27.9696 13.5296 27.9745 13.5223 27.9795C13.5145 27.9848 13.5068 27.99 13.4988 27.9954C13.4825 28.0066 13.4662 28.0178 13.4499 28.0291C13.4376 28.0376 13.4376 28.0376 13.4249 28.0462C13.3894 28.0709 13.3544 28.0962 13.3194 28.1216C13.2686 28.1585 13.2175 28.1951 13.1661 28.2312C13.1141 28.2678 13.0625 28.3047 13.0111 28.3419C12.9535 28.3837 12.8956 28.4249 12.8374 28.4658C12.7917 28.4979 12.7464 28.5305 12.7011 28.5633C12.6186 28.6231 12.5355 28.6817 12.4522 28.7403C12.3745 28.7949 12.2973 28.8499 12.2204 28.9056C12.1695 28.9424 12.1183 28.9787 12.0669 29.0148C12.0212 29.047 11.9758 29.0796 11.9305 29.1124C11.8729 29.1541 11.815 29.1953 11.7569 29.2362C11.7112 29.2684 11.6658 29.301 11.6205 29.3338C11.5381 29.3936 11.4549 29.4522 11.3716 29.5108C11.294 29.5654 11.2167 29.6204 11.1398 29.6761C11.0889 29.7129 11.0377 29.7492 10.9863 29.7853C10.9406 29.8175 10.8952 29.8501 10.8499 29.8829C10.7924 29.9246 10.7345 29.9658 10.6763 30.0067C10.6306 30.0389 10.5852 30.0715 10.5399 30.1043C10.4824 30.146 10.4244 30.1873 10.3663 30.2281C10.3209 30.2601 10.2759 30.2925 10.2311 30.3252C10.1763 30.3649 10.121 30.4035 10.065 30.4414C10.0066 30.4809 9.94991 30.522 9.89389 30.5647C9.84202 30.604 9.78843 30.6404 9.73453 30.6768C9.68908 30.7077 9.64477 30.7396 9.60109 30.773C9.54358 30.8168 9.48445 30.8577 9.42453 30.8982C9.37908 30.9291 9.33477 30.9611 9.29109 30.9944C9.23336 31.0384 9.17405 31.0795 9.11395 31.1202C9.06459 31.1537 9.01622 31.1883 8.9683 31.2238C8.92775 31.2538 8.88674 31.2831 8.84546 31.3121C8.79296 31.349 8.74076 31.3862 8.6888 31.4239C8.63123 31.4656 8.57332 31.5068 8.51515 31.5477C8.46945 31.5799 8.42407 31.6125 8.3788 31.6453C8.32121 31.687 8.26328 31.7282 8.2051 31.7691C8.15995 31.8009 8.11515 31.8332 8.07046 31.8656C8.00683 31.9117 7.94258 31.9569 7.87809 32.0019C7.8219 32.0411 7.76625 32.081 7.71078 32.1213C7.6665 32.1534 7.62197 32.1851 7.57723 32.2165C7.52529 32.253 7.47365 32.29 7.42223 32.3272C7.36466 32.3689 7.30675 32.4101 7.24858 32.451C7.20288 32.4832 7.1575 32.5158 7.11223 32.5486C7.02977 32.6083 6.9466 32.667 6.86331 32.7256C6.78568 32.7801 6.70841 32.8352 6.63156 32.8909C6.58066 32.9277 6.52941 32.964 6.47801 33.0001C6.43231 33.0323 6.38693 33.0649 6.34166 33.0977C6.28408 33.1394 6.22618 33.1806 6.16801 33.2215C6.12231 33.2537 6.07693 33.2863 6.03166 33.3191C5.97407 33.3608 5.91616 33.4021 5.85797 33.4429C5.8126 33.4749 5.76764 33.5073 5.72277 33.54C5.66806 33.5797 5.61269 33.6183 5.5567 33.6562C5.49836 33.6957 5.44163 33.7367 5.3856 33.7795C5.33374 33.8187 5.28015 33.8552 5.22625 33.8916C5.1808 33.9225 5.13649 33.9544 5.0928 33.9877C5.0354 34.0315 4.97637 34.0724 4.91656 34.1128C4.85615 34.1538 4.7977 34.1971 4.73962 34.2414C4.6886 34.2799 4.6886 34.2799 4.66534 34.2803C4.62875 34.2665 4.60722 34.2406 4.58075 34.2125C4.56968 34.201 4.5586 34.1896 4.5475 34.1782C4.53959 34.1701 4.53959 34.1701 4.53151 34.1617C4.50987 34.1399 4.48672 34.1201 4.46325 34.1002C4.43386 34.0742 4.4068 34.0458 4.37922 34.0179C4.36092 33.9998 4.34234 33.9828 4.32279 33.9662C4.28852 33.9369 4.25704 33.9051 4.22541 33.8731C4.19687 33.8443 4.16729 33.8175 4.13647 33.7912C4.10685 33.7648 4.07943 33.7362 4.05154 33.7079C4.03305 33.6897 4.01425 33.6725 3.99452 33.6556C3.95841 33.6248 3.92547 33.5912 3.89211 33.5574C3.87362 33.5391 3.85483 33.522 3.83509 33.5051C3.79899 33.4742 3.76604 33.4406 3.73268 33.4068C3.71419 33.3886 3.6954 33.3714 3.67566 33.3545C3.64773 33.3307 3.62178 33.3054 3.59595 33.2793C3.5703 33.2533 3.54455 33.2282 3.51679 33.2045C3.48252 33.1753 3.45104 33.1435 3.41941 33.1114C3.39087 33.0826 3.36129 33.0559 3.33047 33.0296C3.30085 33.0032 3.27343 32.9745 3.24554 32.9463C3.22705 32.9281 3.20825 32.9109 3.18852 32.894C3.15241 32.8632 3.11947 32.8295 3.08611 32.7958C3.06762 32.7775 3.04883 32.7603 3.02909 32.7435C2.99299 32.7126 2.96004 32.679 2.92668 32.6452C2.90819 32.627 2.8894 32.6098 2.86966 32.5929C2.84173 32.569 2.81578 32.5438 2.78995 32.5176C2.7643 32.4917 2.73855 32.4666 2.71079 32.4429C2.67652 32.4136 2.64504 32.3818 2.61341 32.3498C2.58487 32.321 2.55529 32.2942 2.52447 32.268C2.49485 32.2415 2.46743 32.2129 2.43954 32.1847C2.42105 32.1664 2.40225 32.1493 2.38252 32.1324C2.34641 32.1015 2.31347 32.0679 2.28011 32.0341C2.26162 32.0159 2.24283 31.9987 2.22309 31.9818C2.18699 31.951 2.15404 31.9173 2.12068 31.8836C2.10219 31.8653 2.0834 31.8481 2.06366 31.8313C2.03573 31.8074 2.00978 31.7821 1.98395 31.756C1.9583 31.73 1.93255 31.7049 1.90479 31.6813C1.87052 31.652 1.83904 31.6202 1.80741 31.5882C1.77887 31.5594 1.74929 31.5326 1.71847 31.5063C1.68885 31.4799 1.66143 31.4513 1.63354 31.4231C1.61505 31.4048 1.59625 31.3876 1.57652 31.3707C1.54041 31.3399 1.50747 31.3063 1.47411 31.2725C1.45562 31.2543 1.43683 31.2371 1.41709 31.2202C1.38099 31.1893 1.34804 31.1557 1.31468 31.1219C1.29619 31.1037 1.2774 31.0865 1.25766 31.0696C1.22973 31.0458 1.20378 31.0205 1.17795 30.9944C1.1523 30.9684 1.12655 30.9433 1.09879 30.9196C1.06452 30.8904 1.03304 30.8586 1.00141 30.8265C0.972872 30.7978 0.943291 30.771 0.912474 30.7447C0.882849 30.7183 0.855428 30.6897 0.827536 30.6614C0.809046 30.6432 0.790254 30.626 0.770518 30.6091C0.734414 30.5783 0.701472 30.5446 0.668107 30.5109C0.649618 30.4926 0.630826 30.4754 0.611089 30.4586C0.583154 30.4347 0.557205 30.4094 0.531375 30.3833C0.505725 30.3573 0.479982 30.3322 0.452214 30.3086C0.417949 30.2793 0.386466 30.2475 0.354842 30.2155C0.326301 30.1867 0.29672 30.1599 0.265903 30.1336C0.236278 30.1072 0.208857 30.0786 0.180964 30.0503C0.162475 30.0321 0.143683 30.0149 0.123946 29.998C0.095187 29.9731 0.066939 29.9478 0.0392501 29.9217C0.0315661 29.9145 0.0238822 29.9074 0.0159655 29.9C-5.35054e-05 29.8785 -5.35055e-05 29.8785 0.00179534 29.8579C0.00954888 29.8317 0.0201969 29.8112 0.0340603 29.7876C0.0419812 29.774 0.0419812 29.774 0.050062 29.7602C0.058685 29.7456 0.058685 29.7456 0.0674822 29.7307C0.0735032 29.7204 0.0795174 29.7101 0.0855252 29.6998C0.0980091 29.6784 0.110522 29.6571 0.123056 29.6357C0.151674 29.5869 0.179859 29.5378 0.208089 29.4888C0.219159 29.4696 0.23023 29.4504 0.241304 29.4312C0.246784 29.4217 0.252264 29.4123 0.257911 29.4025C0.274518 29.3737 0.291125 29.3449 0.307732 29.3161C0.313213 29.3066 0.318694 29.2971 0.324341 29.2873C0.335405 29.2682 0.346469 29.249 0.357534 29.2298C0.385339 29.1816 0.413131 29.1334 0.440901 29.0852C0.494241 28.9927 0.547731 28.9002 0.601679 28.808C0.646631 28.7311 0.691004 28.654 0.735089 28.5766C0.784158 28.4905 0.833703 28.4047 0.883743 28.3192C0.938251 28.226 0.992156 28.1325 1.04605 28.0389C1.07376 27.9908 1.1015 27.9428 1.12923 27.8947C1.1403 27.8755 1.15138 27.8563 1.16245 27.8371C1.72709 26.8585 1.72709 26.8585 2.29173 25.8799C2.29721 25.8704 2.30269 25.8609 2.30834 25.8511C2.3194 25.832 2.33047 25.8128 2.34153 25.7936C2.36934 25.7454 2.39713 25.6972 2.4249 25.649C2.47824 25.5565 2.53173 25.464 2.58568 25.3718C2.63063 25.2949 2.675 25.2178 2.71909 25.1404C2.76816 25.0543 2.8177 24.9685 2.86774 24.883C2.92225 24.7898 2.97616 24.6963 3.03005 24.6027C3.05776 24.5546 3.0855 24.5066 3.11323 24.4585C3.1243 24.4393 3.13538 24.4201 3.14645 24.4009C3.52287 23.7485 3.8993 23.0961 4.27573 22.4437C4.28121 22.4342 4.28669 22.4247 4.29234 22.4149C4.3034 22.3958 4.31447 22.3766 4.32553 22.3574C4.35334 22.3092 4.38113 22.261 4.4089 22.2128C4.46224 22.1203 4.51573 22.0278 4.56968 21.9356C4.61463 21.8588 4.659 21.7816 4.70309 21.7042C4.75216 21.6181 4.8017 21.5323 4.85174 21.4468C4.90625 21.3536 4.96016 21.2601 5.01405 21.1665C5.04176 21.1184 5.0695 21.0704 5.09723 21.0223C5.1083 21.0031 5.11938 20.9839 5.13045 20.9647C5.50688 20.3123 5.8833 19.6599 6.25973 19.0075C6.26521 18.998 6.27069 18.9885 6.27634 18.9787C6.28741 18.9596 6.29847 18.9404 6.30953 18.9212C6.33734 18.873 6.36513 18.8249 6.3929 18.7766C6.44624 18.6841 6.49973 18.5916 6.55368 18.4994C6.59863 18.4226 6.643 18.3454 6.68709 18.268C6.73616 18.1819 6.7857 18.0962 6.83574 18.0106C6.89025 17.9174 6.94416 17.8239 6.99805 17.7303C7.02576 17.6822 7.0535 17.6342 7.08123 17.5861C7.0923 17.5669 7.10337 17.5477 7.11445 17.5286C7.53516 16.7994 7.95587 16.0702 8.37659 15.3411C8.38207 15.3316 8.38755 15.3221 8.3932 15.3123C8.40426 15.2931 8.41533 15.2739 8.42639 15.2548C8.4542 15.2066 8.48199 15.1584 8.50976 15.1102C8.5631 15.0176 8.61659 14.9252 8.67054 14.833C8.71549 14.7561 8.75986 14.6789 8.80395 14.6016C8.85301 14.5155 8.90256 14.4297 8.9526 14.3442C9.00711 14.251 9.06101 14.1574 9.11491 14.0639C9.14261 14.0158 9.17035 13.9677 9.19809 13.9197C9.20916 13.9005 9.22023 13.8813 9.2313 13.8621C9.60773 13.2097 9.98416 12.5573 10.3606 11.9049C10.3661 11.8954 10.3716 11.8859 10.3772 11.8761C10.3883 11.8569 10.3993 11.8377 10.4104 11.8186C10.4382 11.7704 10.466 11.7222 10.4938 11.674C10.5471 11.5814 10.6006 11.489 10.6545 11.3968C10.6995 11.3199 10.7439 11.2427 10.7879 11.1654C10.837 11.0793 10.8866 10.9935 10.9366 10.908C10.9911 10.8148 11.045 10.7212 11.0989 10.6277C11.1266 10.5796 11.1544 10.5315 11.1821 10.4835C11.1932 10.4643 11.2042 10.4451 11.2153 10.4259C11.5917 9.7735 11.9682 9.12109 12.3446 8.46869C12.3501 8.45919 12.3556 8.44969 12.3612 8.4399C12.3723 8.42073 12.3833 8.40155 12.3944 8.38238C12.4222 8.3342 12.45 8.28601 12.4778 8.2378C12.5311 8.14524 12.5846 8.05277 12.6385 7.96056C12.6835 7.88371 12.7279 7.80655 12.7719 7.7292C12.821 7.6431 12.8706 7.55731 12.9206 7.47177C12.9751 7.37857 13.029 7.28503 13.0829 7.19147C13.1106 7.14339 13.1384 7.09533 13.1661 7.04727C13.1772 7.02808 13.1882 7.00889 13.1993 6.98971C13.5757 6.3373 13.9522 5.6849 14.3286 5.03249C14.3341 5.02299 14.3396 5.01349 14.3452 5.0037C14.3563 4.98453 14.3673 4.96536 14.3784 4.94618C14.4062 4.898 14.434 4.84981 14.4618 4.80161C14.5151 4.70905 14.5686 4.61658 14.6225 4.52437C14.6675 4.44752 14.7119 4.37035 14.7559 4.293C14.805 4.20691 14.8546 4.12111 14.9046 4.03558C14.9591 3.94238 15.013 3.84883 15.0669 3.75527C15.0946 3.7072 15.1224 3.65914 15.1501 3.61108C15.1612 3.59189 15.1722 3.5727 15.1833 3.55351C15.2054 3.51513 15.2276 3.47676 15.2497 3.43838C15.2552 3.42887 15.2607 3.41935 15.2664 3.40955C15.2773 3.39052 15.2883 3.37149 15.2993 3.35246C15.3253 3.30751 15.3512 3.26254 15.377 3.21752C15.3892 3.19625 15.4014 3.17499 15.4136 3.15374C15.4222 3.13873 15.4308 3.12371 15.4394 3.1087C15.4446 3.09961 15.4499 3.09052 15.4552 3.08116C15.4598 3.07316 15.4644 3.06517 15.4691 3.05693C15.4814 3.03679 15.4935 3.01793 15.5088 3Z" fill="#6366F1"/>
</g>
<defs>
<clipPath id="clip0_3_143">
<rect width="31" height="31.28" fill="white" transform="translate(0 3)"/>
</clipPath>
</defs>
</svg>
