<svg width="35" height="35" viewBox="0 0 35 35" fill="none" xmlns="http://www.w3.org/2000/svg">
<path d="M18.9221 24.8058H15.6399V17.8176H14V15.1201H15.6399V13.5042C15.6399 11.3076 16.5624 10 19.197 10H21.3874V12.6944H20.0192C18.9951 12.6944 18.9267 13.0702 18.9267 13.7729L18.9221 15.1201H21.4029L21.1125 17.8145H18.9221V24.8027V24.8058Z" fill="#FF532E" fill-opacity="0.8"/>
<path d="M20.8461 15.6201H18.9221H18.4204L18.4221 15.1184L18.4267 13.7729C18.4267 13.7726 18.4267 13.7723 18.4267 13.772L18.4267 13.7712L18.9267 13.7729L20.8461 15.6201ZM20.8461 15.6201L20.6635 17.3145H18.9221H18.4221V17.8145V24.3058H16.1399V17.8176V17.3176H15.6399H14.5V15.6201H15.6399H16.1399V15.1201V13.5042C16.1399 12.463 16.3604 11.7374 16.7964 11.2691C17.2259 10.8077 17.9552 10.5 19.197 10.5H20.8874V12.1944L20.8461 15.6201Z" stroke="#FF532E" stroke-opacity="0.4"/>
<circle cx="17.5" cy="17.5" r="17.25" stroke="#FF532E" stroke-opacity="0.4" stroke-width="0.5"/>
</svg>
