<svg width="410" height="358" viewBox="0 0 410 358" fill="none" xmlns="http://www.w3.org/2000/svg">
<path d="M382.079 357.189V318.449C382.079 318.449 397.176 345.914 382.079 357.189Z" fill="#F1F1F1"/>
<path d="M383.011 357.182L354.473 330.984C354.473 330.984 384.916 338.436 383.011 357.182Z" fill="#F1F1F1"/>
<path d="M144.709 68.9659H143.114V25.2827C143.114 18.5773 140.45 12.1465 135.709 7.40512C130.968 2.66371 124.537 4.26099e-06 117.832 0H25.2827C21.9625 -7.73586e-06 18.6749 0.653939 15.6074 1.9245C12.54 3.19507 9.75287 5.05738 7.40515 7.40508C5.05744 9.75279 3.19512 12.5399 1.92455 15.6073C0.653968 18.6748 5.62613e-06 21.9624 0 25.2826V264.932C-5.68123e-06 271.638 2.66369 278.068 7.4051 282.81C12.1465 287.551 18.5772 290.215 25.2826 290.215H117.831C124.537 290.215 130.968 287.551 135.709 282.81C140.45 278.068 143.114 271.638 143.114 264.932V100.06H144.709V68.9659Z" fill="#3F3D56"/>
<path d="M118.852 6.57765H106.771C107.326 7.9397 107.538 9.41748 107.388 10.8808C107.238 12.3441 106.731 13.7481 105.91 14.969C105.09 16.1899 103.981 17.1902 102.683 17.882C101.385 18.5737 99.9366 18.9356 98.4657 18.9357H45.4456C43.9746 18.9356 42.5262 18.5737 41.228 17.882C39.9298 17.1902 38.8217 16.1899 38.0012 14.969C37.1807 13.748 36.673 12.3441 36.5229 10.8808C36.3728 9.41747 36.5849 7.93969 37.1404 6.57764H25.857C23.3776 6.57763 20.9224 7.066 18.6317 8.01484C16.3409 8.96369 14.2595 10.3544 12.5063 12.1077C10.753 13.8609 9.36227 15.9423 8.41342 18.233C7.46456 20.5238 6.9762 22.979 6.9762 25.4584V264.756C6.97619 267.236 7.46455 269.691 8.4134 271.982C9.36225 274.272 10.753 276.354 12.5062 278.107C14.2595 279.86 16.3409 281.251 18.6316 282.2C20.9223 283.149 23.3775 283.637 25.857 283.637H118.852C123.859 283.637 128.661 281.648 132.202 278.107C135.743 274.566 137.732 269.764 137.732 264.756V25.4585C137.732 22.979 137.244 20.5238 136.295 18.2331C135.346 15.9424 133.956 13.861 132.202 12.1077C130.449 10.3545 128.368 8.96371 126.077 8.01486C123.786 7.06601 121.331 6.57765 118.852 6.57765Z" fill="white"/>
<path d="M72.3544 185.121C97.3305 185.121 117.578 164.874 117.578 139.898C117.578 114.922 97.3305 94.6746 72.3544 94.6746C47.3783 94.6746 27.1311 114.922 27.1311 139.898C27.1311 164.874 47.3783 185.121 72.3544 185.121Z" fill="#6C63FF"/>
<path d="M85.7551 142.988L74.509 154.572C74.2643 154.818 73.9719 155.012 73.6496 155.142C73.3273 155.272 72.982 155.335 72.6347 155.327H72.5973C72.2492 155.334 71.9032 155.271 71.5801 155.142C71.257 155.012 70.9635 154.818 70.7174 154.572L59.4768 142.988C59.4395 142.945 59.3966 142.908 59.3589 142.87C58.9103 142.389 58.6708 141.75 58.6929 141.092C58.715 140.435 58.9969 139.813 59.4768 139.363C59.9902 138.88 60.6682 138.612 61.3726 138.612C62.0771 138.612 62.7551 138.88 63.2684 139.363L69.9304 146.325V128.374C69.9614 127.682 70.2579 127.029 70.7581 126.551C71.2584 126.073 71.9238 125.806 72.616 125.806C73.3081 125.806 73.9736 126.073 74.4738 126.551C74.9741 127.029 75.2706 127.682 75.3016 128.374V146.325L81.9583 139.363C82.4727 138.88 83.1514 138.612 83.8567 138.612C84.562 138.612 85.2407 138.88 85.7551 139.363C85.7928 139.4 85.8302 139.438 85.873 139.48C86.3204 139.962 86.5591 140.601 86.5371 141.259C86.515 141.916 86.2339 142.537 85.7551 142.988Z" fill="white"/>
<path d="M316.1 349.85L309.534 349.85L306.411 324.526L316.101 324.526L316.1 349.85Z" fill="#9F616A"/>
<path d="M317.774 356.214L296.604 356.214V355.946C296.604 353.761 297.473 351.665 299.018 350.12C300.563 348.574 302.659 347.706 304.844 347.706L317.774 347.707L317.774 356.214Z" fill="#2F2E41"/>
<path d="M266.222 349.634L259.879 347.938L263.403 322.666L272.764 325.169L266.222 349.634Z" fill="#9F616A"/>
<path d="M266.196 356.214L245.745 350.746L245.814 350.487C246.378 348.376 247.758 346.576 249.65 345.482C251.542 344.388 253.791 344.091 255.902 344.655L268.394 347.995L266.196 356.214Z" fill="#2F2E41"/>
<path d="M319.877 207.929L325.376 214.318L318.264 344.153H303.072L295.412 244.25L271.664 346.832L255.87 342.959L270.231 212.665L319.877 207.929Z" fill="#2F2E41"/>
<path d="M273.902 124.105L289.029 116.518L312.29 116.927L332.308 127.171L320.919 184.051L325.839 213.708C306.823 218.558 286.915 218.721 267.822 214.186L267.67 214.15C267.67 214.15 278.977 174.03 274.164 161.786L273.902 124.105Z" fill="#CBCBCB"/>
<path d="M317.663 93.7902C317.646 89.2504 315.829 84.9028 312.61 81.7015C309.391 78.5003 305.033 76.7071 300.493 76.7155C295.953 76.7239 291.602 78.5332 288.395 81.7463C285.188 84.9594 283.387 89.3138 283.387 93.8536C283.387 98.3935 285.188 102.748 288.395 105.961C291.602 109.174 295.953 110.983 300.493 110.992C305.033 111 309.391 109.207 312.61 106.006C315.829 102.805 317.646 98.4569 317.663 93.917C317.663 93.8748 317.663 93.8325 317.663 93.7902Z" fill="#9F616A"/>
<path d="M292.851 83.9975C293.738 83.162 294.907 82.6903 296.126 82.6761C297.957 82.6166 300.701 83.2668 301.868 84.7553C302.807 85.9516 302.852 87.5976 302.855 89.118L302.865 93.3143C302.868 94.5558 302.883 95.8502 303.447 96.9562C304.011 98.0622 305.306 98.9022 306.489 98.5252C307.892 98.0779 308.509 96.213 309.943 95.8777C311.02 95.6258 312.126 96.4128 312.597 97.4136C312.995 98.4511 313.126 99.5715 312.98 100.673C312.845 102.87 309.693 103.742 309.247 105.898C308.989 107.144 308.085 109.632 309.247 109.111C314.602 108.575 316.953 105.447 319.404 102.503L324.932 95.8616C325.563 95.2023 326.048 94.4171 326.356 93.5576C326.493 92.9554 326.542 92.3366 326.502 91.7203C326.472 90.0697 326.427 88.4195 326.367 86.7697C326.315 85.3283 325.953 83.5097 324.541 83.2134C323.807 83.0594 322.835 83.328 322.447 82.686C322.302 82.3642 322.278 82.0005 322.381 81.6626C322.692 80.0152 323.218 78.292 322.676 76.7055C321.858 74.3127 319.042 73.3308 316.554 72.8794C314.066 72.4279 311.273 72.0395 309.711 70.0507C309.293 69.3903 308.84 68.753 308.353 68.1416C307.637 67.4903 306.757 67.0463 305.807 66.8574C302.718 66.0757 299.456 66.3652 296.553 67.6787C295.349 68.2279 294.141 68.9674 292.82 68.8838C291.449 68.7968 290.277 67.8317 288.923 67.5969C286.737 67.2176 284.646 68.8561 283.568 70.7964C282.233 73.2007 282.11 76.4933 283.997 78.4946C284.938 79.493 286.342 80.1788 286.733 81.4941C286.892 82.0294 286.855 82.606 286.996 83.1465C287.16 83.6845 287.472 84.1653 287.898 84.5332C288.323 84.9012 288.844 85.1415 289.4 85.2263C290.737 85.4441 291.868 84.8315 292.851 83.9975Z" fill="#2F2E41"/>
<path d="M271.814 165.577C272.14 166.413 272.645 167.168 273.294 167.788C273.942 168.408 274.719 168.878 275.569 169.166C276.419 169.453 277.322 169.55 278.214 169.451C279.106 169.352 279.965 169.058 280.731 168.59L311.445 184.827L312.44 177.345L282.595 159.746C281.725 158.511 280.432 157.638 278.961 157.293C277.49 156.948 275.944 157.154 274.615 157.873C273.286 158.592 272.267 159.773 271.751 161.193C271.235 162.613 271.257 164.173 271.814 165.577Z" fill="#9F616A"/>
<path d="M312.744 166.871C312.244 167.616 311.586 168.241 310.817 168.704C310.048 169.167 309.187 169.456 308.295 169.551C307.403 169.645 306.5 169.543 305.652 169.25C304.803 168.958 304.029 168.484 303.384 167.86L269.862 176.983L270.153 167.483L303.5 158.822C304.62 157.807 306.073 157.239 307.583 157.224C309.094 157.209 310.558 157.748 311.697 158.741C312.837 159.733 313.573 161.108 313.766 162.607C313.958 164.105 313.595 165.622 312.744 166.871Z" fill="#9F616A"/>
<path d="M325.772 127.58L332.308 127.171C332.308 127.171 339.961 137.268 335.716 148.225C335.716 148.225 336.451 187.586 319.502 185.969C302.553 184.352 297.198 184.352 297.198 184.352L302.285 170.161L313.667 166.647C313.667 166.647 310.159 151.173 316.799 144.735L325.772 127.58Z" fill="#CBCBCB"/>
<path d="M278.575 127.234L277.651 122.499C277.651 122.499 264.027 122.179 261.333 142.823C261.333 142.823 249.082 173.719 261.091 177.697C273.099 181.675 286.308 177.697 286.308 177.697L285.313 164.072L272.1 161.375C272.1 161.375 278.926 152.545 275.209 144.885L278.575 127.234Z" fill="#CBCBCB"/>
<path d="M409.464 357.596H205.428C205.286 357.596 205.15 357.539 205.05 357.439C204.949 357.338 204.893 357.202 204.893 357.06C204.893 356.918 204.949 356.782 205.05 356.681C205.15 356.581 205.286 356.525 205.428 356.525H409.464C409.607 356.525 409.743 356.581 409.843 356.681C409.944 356.782 410 356.918 410 357.06C410 357.202 409.944 357.338 409.843 357.439C409.743 357.539 409.607 357.596 409.464 357.596Z" fill="#CBCBCB"/>
</svg>
